<svg width="150" height="150" fill="none" xmlns="http://www.w3.org/2000/svg"><circle cx="75" cy="75" r="73" stroke="#0082F4" stroke-width="4"/><path d="m107.8 61.7-5-8.4c-.2-.6-.9-.8-1.4-.5l-7.2 2.9a1.2 1.2 0 1 0 .9 2.1l6.2-2.5 4 6.7-5.4 4.2c-.4.3-.5.8-.4 1.3 1.5 4.8 1.5 10 0 15-.1.5 0 1 .4 1.3l5.3 4.2-3.9 6.7-6.2-2.5c-.5-.2-1-.1-1.3.3-3.6 3.7-8 6.3-13 7.5-.5.1-.9.5-1 1l-1 6.7h-7.7l-1-6.7c0-.5-.4-.9-.8-1-5-1.2-9.5-3.8-13-7.5-.4-.4-1-.5-1.4-.3l-6.2 2.5-4-6.7 5.4-4.2c.4-.3.5-.8.4-1.3-1.5-4.8-1.5-10 0-15 .1-.5 0-1-.4-1.3L44.8 62l3.9-6.7 6.2 2.5c.5.2 1 .1 1.3-.3 3.6-3.7 8-6.3 13-7.5.5-.1.9-.5 1-1l1-6.7h7.7l1 6.7c0 .5.4.9.8 1 2.8.6 5.4 1.7 7.8 3.2a1.2 1.2 0 0 0 1.2-2c-2.4-1.5-5-2.6-7.7-3.3L81 41c0-.6-.5-1-1.1-1h-9.8c-.6 0-1 .4-1.2 1l-1 7a27.8 27.8 0 0 0-12.8 7.4l-6.5-2.6c-.5-.3-1.2 0-1.5.5l-4.9 8.4c-.3.6-.1 1.2.3 1.6l5.5 4.3c-1.3 4.8-1.3 10 0 14.8l-5.5 4.3c-.4.4-.6 1-.3 1.6l5 8.4c.2.6.9.8 1.4.5l6.5-2.6c3.5 3.7 8 6.2 12.9 7.5l1 6.9c0 .6.5 1 1.1 1h9.8c.6 0 1-.4 1.2-1l1-7c4.8-1.2 9.3-3.7 12.8-7.4l6.5 2.6c.5.3 1.2 0 1.5-.5l4.9-8.4c.3-.6.1-1.2-.3-1.6l-5.5-4.3c1.3-4.8 1.3-10 0-14.8l5.5-4.3c.4-.4.6-1 .3-1.6ZM73 69.4l5.8 10a1.2 1.2 0 0 1-2 1.2l-5.8-10a1.2 1.2 0 0 1 2-1.2Zm-4.6 10c-.4.5-1.2.5-1.6 0l-3.7-3.6c-.5-.4-.5-1.2 0-1.6l3.7-3.7a1.2 1.2 0 0 1 1.6 1.7L65.7 75l2.8 2.8c.5.5.5 1.2 0 1.7Zm13.7-9.2c.3 0 .6 0 .8.3l3.7 3.7c.4.4.4 1.2 0 1.6L83 79.5a1.2 1.2 0 0 1-1.7-1.7l2.9-2.8-2.9-2.8c-.7-.8-.2-2 .9-2Zm-14-13.9a19.9 19.9 0 1 1-7 4.3 1.2 1.2 0 1 1 1.6 1.7 17.6 17.6 0 1 0 6.2-3.8 1.2 1.2 0 0 1-.8-2.2Z" fill="#0082F4"/></svg>