<svg width="150" height="150" fill="none" xmlns="http://www.w3.org/2000/svg"><circle cx="75" cy="75" r="73" stroke="#0082F4" stroke-width="4"/><g clip-path="url(#a)" fill="#0082F4"><path d="M107 66H73V45l-2-3h-9a8 8 0 0 0-10 0h-9c-2 0-3 2-3 3v38c0 2 1 3 3 3h17v21c0 1 1 3 3 3h44c2 0 3-2 3-3V69c0-2-1-3-3-3Zm-28 3h12v22l-5-2h-2l-5 2V69ZM57 44c2 0 4 2 4 4h-8c0-2 2-4 4-4Zm-14 2h7l-1 2h-3a2 2 0 0 0 0 3h22a2 2 0 1 0 0-3h-4v-2h6v37H43V46Zm64 60H63V86h8c1 0 2-1 2-3V69h2v24a2 2 0 0 0 3 2l7-3 7 3a2 2 0 0 0 2-2V69h13v37Z"/><path d="m62 62-8 8-3-3a2 2 0 0 0-2 3l4 4a2 2 0 0 0 2 0l10-10a2 2 0 0 0-3-2Z"/></g><defs><clipPath id="a"><path fill="#fff" transform="translate(40 40)" d="M0 0h70v70H0z"/></clipPath></defs></svg>